<svg width="29" height="26" viewBox="0 0 29 26" fill="none" xmlns="http://www.w3.org/2000/svg">
<path d="M12.8995 0H15.2363V2.33333H12.8995V0Z" fill="white"/>
<path d="M19.9099 0H22.2467V2.33333H19.9099V0Z" fill="white"/>
<path d="M5.88916 0H8.22594V2.33333H5.88916V0Z" fill="white"/>
<path d="M26.9202 2.33331H22.2466V5.83331H19.9099V2.33331H15.2363V5.83331H12.8995V2.33331H8.22597V5.83331H5.88919V2.33331H1.21563C0.905755 2.33331 0.60857 2.45623 0.389455 2.67502C0.170339 2.89381 0.0472412 3.19056 0.0472412 3.49998L0.0472412 24.5C0.0472412 24.8094 0.170339 25.1061 0.389455 25.3249C0.60857 25.5437 0.905755 25.6666 1.21563 25.6666H26.9202C27.2301 25.6666 27.5273 25.5437 27.7464 25.3249C27.9655 25.1061 28.0886 24.8094 28.0886 24.5V3.49998C28.0886 3.19056 27.9655 2.89381 27.7464 2.67502C27.5273 2.45623 27.2301 2.33331 26.9202 2.33331ZM21.5677 17.2827L19.9099 16.1V21C19.9099 21.3094 19.7868 21.6061 19.5676 21.8249C19.3485 22.0437 19.0513 22.1666 18.7415 22.1666H15.8205V17.5C15.8205 17.1906 15.6974 16.8938 15.4783 16.675C15.2592 16.4562 14.962 16.3333 14.6521 16.3333H13.4837C13.1738 16.3333 12.8767 16.4562 12.6575 16.675C12.4384 16.8938 12.3153 17.1906 12.3153 17.5V22.1666H9.39436C9.08448 22.1666 8.7873 22.0437 8.56818 21.8249C8.34907 21.6061 8.22597 21.3094 8.22597 21V16.1L6.56832 17.2827L5.21006 15.3839L13.3888 9.5506C13.5878 9.4113 13.8249 9.33657 14.0679 9.33657C14.3109 9.33657 14.5481 9.4113 14.747 9.5506L22.9258 15.3839L21.5677 17.2827Z" fill="white"/>
</svg>
