<svg width="64" height="61" viewBox="0 0 64 61" fill="none" xmlns="http://www.w3.org/2000/svg">
<path d="M31.758 4.33605e-05C39.1773 0.0061685 46.3664 2.43897 52.1079 6.88649C57.8494 11.334 61.7904 17.5229 63.2636 24.4052C64.7368 31.2874 63.6516 38.4401 60.1918 44.6519C56.732 50.8638 51.1102 55.753 44.2784 58.4917C36.4447 61.5022 27.6737 61.4732 19.8624 58.411C12.051 55.3489 5.82709 49.4997 2.5366 42.1284C-0.753886 34.7571 -0.846479 26.4562 2.27885 19.0208C5.40418 11.5854 11.4962 5.61316 19.2375 2.39561C23.1982 0.807897 27.4567 -0.00689324 31.758 4.33605e-05V4.33605e-05ZM44.6486 40.1707L49.9396 35.2797L32.1798 18.8651L14.419 35.2847L19.71 40.1756L32.1798 28.647L44.6486 40.1707Z" fill="#969696"/>
</svg>
