<svg width="65" height="62" viewBox="0 0 65 62" fill="none" xmlns="http://www.w3.org/2000/svg">
<path d="M32.8017 61.074C25.3823 61.0678 18.1932 58.635 12.4517 54.1875C6.71025 49.74 2.76923 43.5511 1.29604 36.6688C-0.177139 29.7866 0.908055 22.6339 4.36786 16.4221C7.82767 10.2102 13.4495 5.321 20.2812 2.58227C28.115 -0.428171 36.886 -0.399184 44.6973 2.66296C52.5087 5.72511 58.7326 11.5743 62.0231 18.9456C65.3135 26.3169 65.4061 34.6178 62.2808 42.0532C59.1555 49.4886 53.0634 55.4608 45.3221 58.6784C41.3615 60.2661 37.103 61.0809 32.8017 61.074V61.074ZM19.9111 20.9033L14.62 25.7943L32.3798 42.2089L50.1407 25.7893L44.8497 20.8984L32.3798 32.427L19.9111 20.9033Z" fill="white"/>
</svg>
